# xmcd
#
# Track frame offsets:
# 150
# 13040
# 27240
# 39645
# 59292
# 76460
# 92187
# 112712
# 128545
# 144535
# 154412
# 167432
# 182917
# 198965
#
# Disc length: 2884 seconds
#
#
# Revision: 2
# Processed by: cddbd v1.5.1PL2 Copyright (c) Steve Scherf et al.
# Submitted via: FreeRIP 2.945 
#
DISCID=b00b420e
DTITLE=Joyce - Meus Momentos \\ Joyce
DYEAR=1900
DGENRE=
TTITLE0=Clareana
TTITLE1=Waves
TTITLE2=Triste
TTITLE3=Aos Pes Da Cruz
TTITLE4=Feminina
TTITLE5=Eu Sei Que Vou Te Amar
TTITLE6=Misterios
TTITLE7=Essa Mulher
TTITLE8=Corcovado
TTITLE9=Da Cor Brasileira
TTITLE10=Monsieur Binot
TTITLE11=Mulheres Do Brasil
TTITLE12=Chega De Saudade
TTITLE13=A Felicidade
EXTD=
EXTT0=
EXTT1=
EXTT2=
EXTT3=
EXTT4=
EXTT5=
EXTT6=
EXTT7=
EXTT8=
EXTT9=
EXTT10=
EXTT11=
EXTT12=
EXTT13=
PLAYORDER=
